<svg xmlns="http://www.w3.org/2000/svg" 
     width="64" height="64" 
     viewBox="0 0 24 24">
  <path d="M19.14,12.94 C19.14,12.64 19.11,12.35 19.08,12.05 L21.19,10.47 C21.37,10.33 21.43,10.06 21.32,9.85 L19.32,6.15 C19.21,5.94 18.96,5.86 18.74,5.94 L16.25,6.84 C15.75,6.44 15.20,6.10 14.58,5.85 L14.24,3.21 C14.21,2.95 14.00,2.75 13.74,2.75 L10.26,2.75 C10.00,2.75 9.79,2.95 9.76,3.21 L9.42,5.85 C8.80,6.10 8.25,6.44 7.75,6.84 L5.26,5.94 C5.04,5.86 4.79,5.94 4.68,6.15 L2.68,9.85 C2.57,10.06 2.63,10.33 2.81,10.47 L4.92,12.05 C4.89,12.35 4.86,12.64 4.86,12.94 C4.86,13.24 4.89,13.53 4.92,13.83 L2.81,15.41 C2.63,15.55 2.57,15.82 2.68,16.03 L4.68,19.73 C4.79,19.94 5.04,20.02 5.26,19.94 L7.75,19.04 C8.25,19.44 8.80,19.78 9.42,20.03 L9.76,22.67 C9.79,22.93 10.00,23.13 10.26,23.13 L13.74,23.13 C14.00,23.13 14.21,22.93 14.24,22.67 L14.58,20.03 C15.20,19.78 15.75,19.44 16.25,19.04 L18.74,19.94 C18.96,20.02 19.21,19.94 19.32,19.73 L21.32,16.03 C21.43,15.82 21.37,15.55 21.19,15.41 L19.08,13.83 C19.11,13.53 19.14,13.24 19.14,12.94 Z M12,15.88 C10.29,15.88 8.88,14.47 8.88,12.76 C8.88,11.05 10.29,9.64 12,9.64 C13.71,9.64 15.12,11.05 15.12,12.76 C15.12,14.47 13.71,15.88 12,15.88 Z" fill="#FFFFFF"/>
</svg>
